<?xml version="1.0" encoding="UTF-8" standalone="no"?>
<!-- Created with Inkscape (http://www.inkscape.org/) -->

<svg
   width="39.002213mm"
   height="29.006742mm"
   viewBox="0 0 39.002213 29.006743"
   version="1.1"
   id="svg1"
   xml:space="preserve"
   inkscape:version="1.4.2 (1:1.4.2+202505120737+ebf0e940d0)"
   sodipodi:docname="drawing.svg"
   xmlns:inkscape="http://www.inkscape.org/namespaces/inkscape"
   xmlns:sodipodi="http://sodipodi.sourceforge.net/DTD/sodipodi-0.dtd"
   xmlns="http://www.w3.org/2000/svg"
   xmlns:svg="http://www.w3.org/2000/svg"><sodipodi:namedview
     id="namedview1"
     pagecolor="#ffffff"
     bordercolor="#000000"
     borderopacity="0.25"
     inkscape:showpageshadow="2"
     inkscape:pageopacity="0.0"
     inkscape:pagecheckerboard="0"
     inkscape:deskcolor="#d1d1d1"
     inkscape:document-units="mm"
     inkscape:zoom="4.0000001"
     inkscape:cx="85.874998"
     inkscape:cy="37.624999"
     inkscape:window-width="1440"
     inkscape:window-height="863"
     inkscape:window-x="0"
     inkscape:window-y="0"
     inkscape:window-maximized="1"
     inkscape:current-layer="svg1" /><defs
     id="defs1" /><path
     d="m 11.972471,0.07649481 c -0.100638,-0.003322 -0.209923,-0.001555 -0.328145,0.009819 -0.455933,0.04389144 -0.828799,0.28092226 -1.044898,0.4588862 C 10.37606,0.72915247 10.239955,0.88431567 10.068195,1.0686823 9.3524618,1.8369356 8.9389857,2.7419004 8.595416,3.7501724 8.3818191,4.3770413 7.7470374,5.6742815 7.3360613,6.3050552 L 7.1872332,6.531398 A 0.19654509,0.19654509 0 0 1 6.9629575,6.601678 0.19654509,0.19654509 0 0 1 6.9004295,6.586175 C 5.9223195,6.1026361 4.8855184,5.8443839 3.9414365,5.7815729 3.4640635,5.7498156 3.044862,5.7500218 2.5410052,5.9024958 2.2873563,5.9792619 2.0192657,6.0861359 1.7302019,6.3593154 1.4611968,6.6135394 1.2031023,7.1381435 1.2031023,7.5726781 c 0,0.6670241 0.3285987,1.0033581 0.5684408,1.2262817 0.2283906,0.2122885 0.4296899,0.3304243 0.6562907,0.4470011 A 0.19654509,0.19654509 0 0 1 2.552374,9.429929 v 0.00207 A 0.19654509,0.19654509 0 0 1 2.4118141,9.619064 c -0.13047,0.03869 -0.2260739,0.03638 -0.2340943,0.03927 -0.8315811,0.300535 -1.65000332,0.73865 -1.9941934,1.781287 -0.0862823,0.261498 -0.23018796,0.682771 0.0744141,1.27124 0.29577198,0.571427 0.9025376,0.781736 1.1952758,0.826306 0.650383,0.09903 0.9445477,-0.007 1.5683797,-0.115238 0.7201951,-0.12497 1.9065644,-0.256056 2.4256917,-0.276986 0.1289454,-0.0052 0.3084698,-0.08998 0.5369181,-0.119372 a 0.19654509,0.19654509 0 0 1 0.2087728,0.127124 c 0.3992214,1.079907 0.972587,2.097079 1.8262451,2.950724 0.3134792,0.313474 0.4671774,0.449984 0.5606893,0.629419 0.046756,0.08972 0.068088,0.187043 0.074414,0.28112 0.00633,0.09408 0.00362,0.189596 0.00362,0.320394 0,1.014758 0.2656779,2.483305 0.5901448,3.89847 0.2851119,1.243554 0.5521533,3.098337 0.5741263,3.781164 0.04289,1.33555 0.4291259,2.521499 1.4004309,3.285071 0.824404,0.648081 2.035077,0.609237 3.054594,0.15813 a 0.19654509,0.19654509 0 0 1 0.15813,0 c 0.171785,0.07528 0.335368,0.193009 0.420129,0.222725 0.293355,0.102853 0.598416,0.184512 0.925525,0.236162 0.122569,0.01867 0.245591,0.02056 0.36742,0.0062 a 0.19654509,0.19654509 0 0 1 0.0021,0 l 0.788582,-0.08992 a 0.19654509,0.19654509 0 0 1 0.0217,-0.0021 h 0.0021 a 0.19654509,0.19654509 0 0 1 0.0057,0 c 0.576986,0.01993 0.922529,-0.23339 1.169954,-0.418062 0.267702,-0.199789 0.430345,-0.376933 0.586011,-0.54312 0.05587,-0.05963 0.07717,-0.08361 0.12299,-0.132808 a 0.19654509,0.19654509 0 0 1 0.187585,-0.05633 c 0.276853,0.06112 0.618614,0.143139 1.084172,0.240296 1.070159,0.223329 2.557286,0.4638 4.335652,0.419613 1.655285,-0.04115 3.29993,-0.117059 4.636927,-0.208773 1.342508,-0.0921 2.164731,-0.129001 2.925402,-0.33383 1.196524,-0.322178 2.23847,-1.069738 3.271635,-1.990576 1.030164,-0.918181 1.96337,-1.987303 2.562635,-3.132626 0.773591,-1.478518 0.966349,-3.460444 1.052649,-5.504056 0.04299,-1.017758 0.02812,-2.003984 -0.06615,-2.859257 -0.09788,-0.888997 -0.02483,-1.482421 -0.798918,-2.337842 -0.2685,-0.296666 -0.551885,-0.52642 -0.869197,-0.716752 -0.340885,-0.204471 -0.57031,-0.382923 -1.226799,-0.382923 -0.417477,0 -0.931599,0.196831 -1.351339,0.488343 a 0.19654509,0.19654509 0 0 1 -0.255798,-0.02946 c -0.111797,-0.12027 -0.259981,-0.1842 -0.437775,-0.314146 a 0.19654509,0.19654509 0 0 1 -0.0021,-0.316776 c 0.104232,-0.0769 0.203216,-0.117686 0.273368,-0.156063 0.07015,-0.03838 0.110252,-0.06718 0.144694,-0.119373 0.25348,-0.384152 0.285254,-0.745625 0.285254,-0.997871 0,-0.7063154 -0.290634,-1.0646812 -0.591695,-1.3849284 C 33.716732,7.7333108 33.384944,7.5097296 32.964438,7.3515029 32.089314,7.0222177 31.358037,7.069997 30.528928,7.1525487 c -0.37485,0.037321 -0.799217,0.288566 -1.255737,0.4118611 A 0.19654509,0.19654509 0 0 1 29.07427,7.5018814 C 29.03331,7.4539803 29.014278,7.447186 28.95283,7.3577041 28.609256,6.8574347 28.279623,6.0799209 28.212823,5.5976048 28.092499,4.7288572 27.862379,3.7528818 27.572036,3.0101659 27.476234,2.7651214 27.391096,2.544574 27.224253,2.275327 27.064441,2.0174116 26.764988,1.6819185 26.390712,1.5001805 25.601984,1.1171935 25.110387,1.2918934 24.501939,1.3906265 23.456713,1.5602306 22.440724,2.0107017 21.545013,2.6034723 21.053317,2.9288584 20.885421,2.9978403 20.775035,3.0194676 20.66184,3.0415515 20.470716,3.0426089 19.876898,2.9280003 18.914606,2.7422295 17.509477,2.6119644 16.442999,2.6034723 l 0.01964,-0.00155 C 15.635533,2.6788627 15.138977,2.3947789 14.741811,2.0019587 14.345184,1.6096709 14.016496,1.1296827 13.384788,0.70126287 l -0.0021,-0.00207 C 12.969585,0.42820755 12.674863,0.10170756 11.980223,0.07649481 h -0.0021 a 0.19654509,0.19654509 0 0 1 -0.0057,0 z M 2.4278338,9.2459609 a 0.19654509,0.19654509 0 0 0 -0.072347,-0.013436 l 0.08785,0.021704 c -0.00518,-0.00265 -0.010347,-0.00562 -0.015503,-0.00827 z"
     style="display:inline;fill:none;fill-opacity:1;stroke:#000000;stroke-width:0.15;stroke-dasharray:none;stroke-dashoffset:0;stroke-opacity:1"
     id="path1" /></svg>
